<svg width="464" height="568" viewBox="0 0 464 568" fill="none" xmlns="http://www.w3.org/2000/svg">
<path d="M231.687 567.164C222.488 567.164 213.665 563.51 207.16 557.005C200.656 550.5 197.001 541.678 197.001 532.479L197.001 126.104L60.9881 278.119C54.8389 284.914 46.2505 288.999 37.099 289.482C27.9475 289.965 18.9767 286.807 12.1462 280.697C5.31567 274.588 1.18059 266.023 0.644229 256.875C0.107866 247.726 3.21381 238.737 9.2836 231.871L205.834 12.1969C209.088 8.55213 213.075 5.63583 217.534 3.63906C221.993 1.64229 226.824 0.610107 231.71 0.610107C236.596 0.610107 241.426 1.64229 245.885 3.63906C250.345 5.63583 254.332 8.55213 257.585 12.1969L454.136 231.871C457.204 235.261 459.571 239.224 461.102 243.532C462.633 247.84 463.297 252.409 463.055 256.974C462.814 261.54 461.673 266.013 459.697 270.135C457.721 274.258 454.95 277.95 451.542 280.998C448.135 284.046 444.158 286.39 439.841 287.896C435.524 289.402 430.952 290.039 426.388 289.771C421.824 289.504 417.358 288.336 413.247 286.337C409.135 284.337 405.46 281.544 402.432 278.119L266.372 126.104L266.372 532.479C266.372 541.678 262.718 550.5 256.213 557.005C249.708 563.51 240.886 567.164 231.687 567.164Z" fill="white"/>
</svg>
