<svg width="332" height="127" viewBox="0 0 332 127" fill="none" xmlns="http://www.w3.org/2000/svg">
<path d="M86.069 46.64C82.997 46.64 80.2663 46.2133 77.877 45.36C75.4877 44.5067 73.205 43.0987 71.029 41.136C70.5597 40.7947 70.197 40.3893 69.941 39.92C69.7277 39.408 69.621 38.896 69.621 38.384C69.621 37.5733 69.9197 36.848 70.517 36.208C71.1143 35.568 71.861 35.248 72.757 35.248C73.4397 35.248 74.0797 35.4827 74.677 35.952C76.2983 37.4453 77.9837 38.576 79.733 39.344C81.525 40.112 83.6157 40.496 86.005 40.496C87.7117 40.496 89.269 40.2187 90.677 39.664C92.1277 39.1093 93.2797 38.3627 94.133 37.424C94.9863 36.4853 95.413 35.3973 95.413 34.16C95.413 32.624 94.965 31.3653 94.069 30.384C93.2157 29.36 91.957 28.528 90.293 27.888C88.6717 27.2053 86.709 26.6293 84.405 26.16C82.2717 25.776 80.3517 25.2427 78.645 24.56C76.981 23.8773 75.5517 23.024 74.357 22C73.1623 20.9333 72.245 19.6747 71.605 18.224C70.965 16.7733 70.645 15.088 70.645 13.168C70.645 10.5653 71.3277 8.32533 72.693 6.448C74.0583 4.57066 75.9143 3.12 78.261 2.096C80.6077 1.072 83.253 0.559998 86.197 0.559998C88.885 0.559998 91.4023 0.986664 93.749 1.84C96.0957 2.65067 97.9943 3.76 99.445 5.168C100.469 6.064 100.981 7.024 100.981 8.048C100.981 8.816 100.661 9.54133 100.021 10.224C99.4237 10.864 98.7197 11.184 97.909 11.184C97.3117 11.184 96.7997 11.0133 96.373 10.672C95.6903 9.94667 94.773 9.30667 93.621 8.752C92.469 8.15467 91.2317 7.664 89.909 7.28C88.629 6.896 87.3917 6.704 86.197 6.704C84.277 6.704 82.6343 6.98133 81.269 7.536C79.9037 8.048 78.8583 8.77333 78.133 9.712C77.4077 10.608 77.045 11.6747 77.045 12.912C77.045 14.3627 77.4503 15.5573 78.261 16.496C79.1143 17.4347 80.2877 18.2027 81.781 18.8C83.2743 19.3547 84.981 19.8667 86.901 20.336C89.2477 20.848 91.3383 21.424 93.173 22.064C95.0503 22.704 96.629 23.536 97.909 24.56C99.189 25.5413 100.17 26.7787 100.853 28.272C101.536 29.7653 101.877 31.6213 101.877 33.84C101.877 36.4 101.152 38.64 99.701 40.56C98.2503 42.48 96.3303 43.9733 93.941 45.04C91.5943 46.1067 88.9703 46.64 86.069 46.64ZM124.339 46C123.315 46 122.483 45.7013 121.843 45.104C121.245 44.464 120.947 43.6747 120.947 42.736V4.4H127.795V42.736C127.795 43.6747 127.453 44.464 126.771 45.104C126.131 45.7013 125.32 46 124.339 46ZM109.811 7.344C108.915 7.344 108.147 7.06666 107.507 6.512C106.867 5.91466 106.547 5.14666 106.547 4.208C106.547 3.312 106.867 2.58666 107.507 2.032C108.147 1.47733 108.915 1.2 109.811 1.2H138.931C139.827 1.2 140.573 1.49866 141.171 2.096C141.811 2.65066 142.131 3.376 142.131 4.272C142.131 5.21066 141.811 5.95733 141.171 6.512C140.573 7.06666 139.827 7.344 138.931 7.344H109.811ZM162.184 9.52L147.784 44.08C147.528 44.7627 147.144 45.296 146.632 45.68C146.12 46.064 145.544 46.256 144.904 46.256C143.965 46.256 143.261 46 142.792 45.488C142.323 44.9333 142.067 44.2507 142.024 43.44C142.024 43.1413 142.088 42.8 142.216 42.416L158.472 3.12C158.771 2.39466 159.197 1.84 159.752 1.456C160.349 1.072 160.989 0.90133 161.672 0.943996C162.312 0.943996 162.909 1.136 163.464 1.52C164.019 1.904 164.424 2.43733 164.68 3.12L180.744 41.84C180.915 42.2667 181 42.6933 181 43.12C181 44.0587 180.68 44.8267 180.04 45.424C179.443 45.9787 178.76 46.256 177.992 46.256C177.352 46.256 176.755 46.064 176.2 45.68C175.688 45.2533 175.304 44.72 175.048 44.08L160.52 9.712L162.184 9.52ZM150.344 34.992L153.224 28.848H171.336L172.424 34.992H150.344ZM207.734 46.64C204.491 46.64 201.462 46.064 198.646 44.912C195.83 43.7173 193.355 42.0747 191.222 39.984C189.131 37.8507 187.489 35.3973 186.294 32.624C185.099 29.8507 184.502 26.8427 184.502 23.6C184.502 20.3573 185.099 17.3493 186.294 14.576C187.489 11.8027 189.131 9.37066 191.222 7.28C193.355 5.14666 195.83 3.504 198.646 2.352C201.462 1.15733 204.491 0.559998 207.734 0.559998C209.825 0.559998 211.851 0.794664 213.814 1.264C215.777 1.73333 217.547 2.416 219.126 3.312C219.681 3.61066 220.086 4.016 220.342 4.528C220.598 4.99733 220.726 5.46666 220.726 5.936C220.726 6.832 220.427 7.62133 219.83 8.304C219.275 8.944 218.571 9.264 217.718 9.264C217.419 9.264 217.099 9.22133 216.758 9.136C216.459 9.05067 216.182 8.944 215.926 8.816C214.731 8.21866 213.451 7.77066 212.086 7.472C210.721 7.13066 209.27 6.96 207.734 6.96C204.662 6.96 201.889 7.70667 199.414 9.2C196.939 10.6507 194.977 12.6347 193.526 15.152C192.118 17.6693 191.414 20.4853 191.414 23.6C191.414 26.672 192.118 29.488 193.526 32.048C194.977 34.5653 196.939 36.5707 199.414 38.064C201.889 39.5147 204.662 40.24 207.734 40.24C209.227 40.24 210.806 40.0693 212.47 39.728C214.134 39.344 215.542 38.8533 216.694 38.256L216.182 39.984V27.824L217.206 28.72H208.822C207.883 28.72 207.094 28.4213 206.454 27.824C205.857 27.2267 205.558 26.4587 205.558 25.52C205.558 24.5813 205.857 23.8133 206.454 23.216C207.094 22.6187 207.883 22.32 208.822 22.32H219.894C220.79 22.32 221.537 22.64 222.134 23.28C222.774 23.8773 223.094 24.6453 223.094 25.584V39.792C223.094 40.4747 222.923 41.0507 222.582 41.52C222.241 41.9893 221.857 42.3733 221.43 42.672C219.51 43.8667 217.377 44.8267 215.03 45.552C212.726 46.2773 210.294 46.64 207.734 46.64ZM234.76 1.2H256.905C257.801 1.2 258.547 1.49866 259.145 2.096C259.785 2.69333 260.104 3.44 260.104 4.336C260.104 5.232 259.785 5.95733 259.145 6.512C258.547 7.06666 257.801 7.344 256.905 7.344H237.577L238.217 6.256V20.592L237.641 19.952H254.025C254.921 19.952 255.667 20.2507 256.265 20.848C256.905 21.4453 257.225 22.2133 257.225 23.152C257.225 24.048 256.905 24.7733 256.265 25.328C255.667 25.8827 254.921 26.16 254.025 26.16H237.769L238.217 25.584V40.368L237.769 39.856H256.905C257.801 39.856 258.547 40.176 259.145 40.816C259.785 41.4133 260.104 42.1173 260.104 42.928C260.104 43.824 259.785 44.5707 259.145 45.168C258.547 45.7227 257.801 46 256.905 46H234.76C233.865 46 233.097 45.7013 232.457 45.104C231.817 44.464 231.497 43.6747 231.497 42.736V4.464C231.497 3.52533 231.817 2.75733 232.457 2.16C233.097 1.52 233.865 1.2 234.76 1.2ZM4.49275 126C3.46875 126 2.57275 125.701 1.80475 125.104C1.03675 124.464 0.65275 123.675 0.65275 122.736V84.464C0.65275 83.5253 0.97275 82.7573 1.61275 82.16C2.25275 81.52 3.02075 81.2 3.91675 81.2H21.9648C24.2688 81.2 26.3808 81.776 28.3008 82.928C30.2208 84.0373 31.7568 85.5947 32.9088 87.6C34.1034 89.5627 34.7008 91.824 34.7008 94.384C34.7008 96.0907 34.3594 97.7333 33.6768 99.312C32.9941 100.848 32.0768 102.213 30.9248 103.408C29.7728 104.603 28.4714 105.499 27.0208 106.096L26.3168 104.88C27.6394 105.349 28.7914 106.032 29.7728 106.928C30.7541 107.781 31.5221 108.805 32.0768 110C32.6741 111.152 32.9941 112.475 33.0368 113.968C33.1648 115.291 33.2714 116.4 33.3568 117.296C33.4848 118.149 33.6554 118.853 33.8688 119.408C34.0821 119.963 34.4661 120.389 35.0208 120.688C35.7888 121.115 36.2581 121.755 36.4288 122.608C36.6421 123.461 36.4714 124.229 35.9168 124.912C35.5328 125.424 35.0421 125.765 34.4448 125.936C33.8901 126.064 33.3141 126.085 32.7168 126C32.1194 125.872 31.6074 125.701 31.1808 125.488C30.4981 125.061 29.7941 124.464 29.0688 123.696C28.3861 122.885 27.8314 121.776 27.4048 120.368C26.9781 118.96 26.7648 117.104 26.7648 114.8C26.7648 113.733 26.5941 112.816 26.2528 112.048C25.9114 111.28 25.4421 110.661 24.8448 110.192C24.2474 109.68 23.5434 109.317 22.7328 109.104C21.9221 108.848 21.0261 108.72 20.0448 108.72H6.47675L7.37275 107.44V122.736C7.37275 123.675 7.11675 124.464 6.60475 125.104C6.09275 125.701 5.38875 126 4.49275 126ZM6.54075 103.152H21.8368C22.8181 103.109 23.7568 102.725 24.6528 102C25.5914 101.232 26.3381 100.208 26.8928 98.928C27.4901 97.648 27.7887 96.1973 27.7887 94.576C27.7887 92.528 27.1701 90.8213 25.9328 89.456C24.7381 88.048 23.3088 87.344 21.6448 87.344H6.66875L7.37275 85.68V104.496L6.54075 103.152ZM47.4792 81.2H69.6233C70.5193 81.2 71.2659 81.4987 71.8633 82.096C72.5033 82.6933 72.8232 83.44 72.8232 84.336C72.8232 85.232 72.5033 85.9573 71.8633 86.512C71.2659 87.0667 70.5193 87.344 69.6233 87.344H50.2953L50.9353 86.256V100.592L50.3593 99.952H66.7433C67.6393 99.952 68.3859 100.251 68.9833 100.848C69.6233 101.445 69.9433 102.213 69.9433 103.152C69.9433 104.048 69.6233 104.773 68.9833 105.328C68.3859 105.883 67.6393 106.16 66.7433 106.16H50.4873L50.9353 105.584V120.368L50.4873 119.856H69.6233C70.5193 119.856 71.2659 120.176 71.8633 120.816C72.5033 121.413 72.8232 122.117 72.8232 122.928C72.8232 123.824 72.5033 124.571 71.8633 125.168C71.2659 125.723 70.5193 126 69.6233 126H47.4792C46.5833 126 45.8153 125.701 45.1753 125.104C44.5353 124.464 44.2153 123.675 44.2153 122.736V84.464C44.2153 83.5253 44.5353 82.7573 45.1753 82.16C45.8153 81.52 46.5833 81.2 47.4792 81.2ZM94.5378 126.64C91.4658 126.64 88.7351 126.213 86.3458 125.36C83.9564 124.507 81.6738 123.099 79.4978 121.136C79.0284 120.795 78.6658 120.389 78.4098 119.92C78.1964 119.408 78.0898 118.896 78.0898 118.384C78.0898 117.573 78.3884 116.848 78.9858 116.208C79.5831 115.568 80.3298 115.248 81.2258 115.248C81.9084 115.248 82.5484 115.483 83.1458 115.952C84.7671 117.445 86.4524 118.576 88.2018 119.344C89.9938 120.112 92.0844 120.496 94.4738 120.496C96.1804 120.496 97.7378 120.219 99.1458 119.664C100.596 119.109 101.748 118.363 102.602 117.424C103.455 116.485 103.882 115.397 103.882 114.16C103.882 112.624 103.434 111.365 102.538 110.384C101.684 109.36 100.426 108.528 98.7618 107.888C97.1404 107.205 95.1778 106.629 92.8738 106.16C90.7404 105.776 88.8204 105.243 87.1138 104.56C85.4498 103.877 84.0204 103.024 82.8258 102C81.6311 100.933 80.7138 99.6747 80.0738 98.224C79.4338 96.7733 79.1138 95.088 79.1138 93.168C79.1138 90.5653 79.7964 88.3253 81.1618 86.448C82.5271 84.5707 84.3831 83.12 86.7298 82.096C89.0764 81.072 91.7218 80.56 94.6658 80.56C97.3538 80.56 99.8711 80.9867 102.218 81.84C104.564 82.6507 106.463 83.76 107.914 85.168C108.938 86.064 109.45 87.024 109.45 88.048C109.45 88.816 109.13 89.5413 108.49 90.224C107.892 90.864 107.188 91.184 106.378 91.184C105.78 91.184 105.268 91.0133 104.842 90.672C104.159 89.9467 103.242 89.3067 102.09 88.752C100.938 88.1547 99.7004 87.664 98.3778 87.28C97.0978 86.896 95.8604 86.704 94.6658 86.704C92.7458 86.704 91.1031 86.9813 89.7378 87.536C88.3724 88.048 87.3271 88.7733 86.6018 89.712C85.8764 90.608 85.5138 91.6747 85.5138 92.912C85.5138 94.3627 85.9191 95.5573 86.7298 96.496C87.5831 97.4347 88.7564 98.2027 90.2498 98.8C91.7431 99.3547 93.4498 99.8667 95.3698 100.336C97.7164 100.848 99.8071 101.424 101.642 102.064C103.519 102.704 105.098 103.536 106.378 104.56C107.658 105.541 108.639 106.779 109.322 108.272C110.004 109.765 110.346 111.621 110.346 113.84C110.346 116.4 109.62 118.64 108.17 120.56C106.719 122.48 104.799 123.973 102.41 125.04C100.063 126.107 97.4391 126.64 94.5378 126.64ZM132.807 126C131.783 126 130.951 125.701 130.311 125.104C129.714 124.464 129.415 123.675 129.415 122.736V84.4H136.263V122.736C136.263 123.675 135.922 124.464 135.239 125.104C134.599 125.701 133.789 126 132.807 126ZM118.279 87.344C117.383 87.344 116.615 87.0667 115.975 86.512C115.335 85.9147 115.015 85.1467 115.015 84.208C115.015 83.312 115.335 82.5867 115.975 82.032C116.615 81.4773 117.383 81.2 118.279 81.2H147.399C148.295 81.2 149.042 81.4987 149.639 82.096C150.279 82.6507 150.599 83.376 150.599 84.272C150.599 85.2107 150.279 85.9573 149.639 86.512C149.042 87.0667 148.295 87.344 147.399 87.344H118.279ZM186.433 81.008C187.244 81.008 187.969 81.328 188.609 81.968C189.292 82.5653 189.633 83.3333 189.633 84.272C189.633 84.6133 189.569 84.9547 189.441 85.296C189.356 85.5947 189.207 85.9147 188.993 86.256L174.337 106.992L175.361 103.216V122.736C175.361 123.675 175.041 124.464 174.401 125.104C173.761 125.701 173.036 126 172.225 126C171.329 126 170.561 125.701 169.921 125.104C169.324 124.464 169.025 123.675 169.025 122.736V103.728L169.473 105.584L155.329 86.704C154.988 86.2347 154.753 85.808 154.625 85.424C154.497 84.9973 154.433 84.592 154.433 84.208C154.433 83.2693 154.796 82.5013 155.521 81.904C156.289 81.3067 157.057 81.008 157.825 81.008C158.849 81.008 159.724 81.4987 160.449 82.48L173.249 100.016L171.713 99.824L183.745 82.544C184.471 81.52 185.367 81.008 186.433 81.008ZM220.608 119.728C221.504 119.728 222.251 120.027 222.848 120.624C223.488 121.221 223.808 121.968 223.808 122.864C223.808 123.76 223.488 124.507 222.848 125.104C222.251 125.701 221.504 126 220.608 126H199.104C198.166 126 197.376 125.701 196.736 125.104C196.139 124.464 195.84 123.675 195.84 122.736V84.464C195.84 83.5253 196.16 82.7573 196.8 82.16C197.44 81.52 198.272 81.2 199.296 81.2C200.15 81.2 200.896 81.52 201.536 82.16C202.219 82.7573 202.56 83.5253 202.56 84.464V120.816L201.216 119.728H220.608ZM237.873 122.736C237.83 123.675 237.467 124.464 236.785 125.104C236.145 125.701 235.377 126 234.481 126C233.499 126 232.689 125.701 232.049 125.104C231.451 124.464 231.153 123.675 231.153 122.736V84.464C231.153 83.5253 231.473 82.7573 232.113 82.16C232.753 81.52 233.585 81.2 234.609 81.2C235.462 81.2 236.209 81.52 236.849 82.16C237.531 82.7573 237.873 83.5253 237.873 84.464V122.736ZM281.815 81.2C282.669 81.2 283.351 81.4987 283.863 82.096C284.418 82.6507 284.695 83.3547 284.695 84.208V122.736C284.695 123.675 284.375 124.464 283.735 125.104C283.138 125.701 282.37 126 281.431 126C281.005 126 280.535 125.915 280.023 125.744C279.554 125.573 279.191 125.339 278.935 125.04L252.631 90.928L254.103 90.096V123.056C254.103 123.867 253.826 124.571 253.271 125.168C252.717 125.723 252.013 126 251.159 126C250.263 126 249.538 125.723 248.983 125.168C248.471 124.571 248.215 123.867 248.215 123.056V84.464C248.215 83.4827 248.535 82.6933 249.175 82.096C249.815 81.4987 250.583 81.2 251.479 81.2C251.949 81.2 252.439 81.3067 252.951 81.52C253.506 81.6907 253.911 81.968 254.167 82.352L279.831 115.76L278.871 116.656V84.208C278.871 83.3547 279.149 82.6507 279.703 82.096C280.258 81.4987 280.962 81.2 281.815 81.2ZM315.953 126.64C312.71 126.64 309.681 126.064 306.865 124.912C304.049 123.717 301.574 122.075 299.441 119.984C297.35 117.851 295.707 115.397 294.513 112.624C293.318 109.851 292.721 106.843 292.721 103.6C292.721 100.357 293.318 97.3493 294.513 94.576C295.707 91.8027 297.35 89.3707 299.441 87.28C301.574 85.1467 304.049 83.504 306.865 82.352C309.681 81.1573 312.71 80.56 315.953 80.56C318.043 80.56 320.07 80.7947 322.033 81.264C323.995 81.7333 325.766 82.416 327.345 83.312C327.899 83.6107 328.305 84.016 328.561 84.528C328.817 84.9973 328.945 85.4667 328.945 85.936C328.945 86.832 328.646 87.6213 328.049 88.304C327.494 88.944 326.79 89.264 325.937 89.264C325.638 89.264 325.318 89.2213 324.977 89.136C324.678 89.0507 324.401 88.944 324.145 88.816C322.95 88.2187 321.67 87.7707 320.305 87.472C318.939 87.1307 317.489 86.96 315.953 86.96C312.881 86.96 310.107 87.7067 307.633 89.2C305.158 90.6507 303.195 92.6347 301.745 95.152C300.337 97.6693 299.633 100.485 299.633 103.6C299.633 106.672 300.337 109.488 301.745 112.048C303.195 114.565 305.158 116.571 307.633 118.064C310.107 119.515 312.881 120.24 315.953 120.24C317.446 120.24 319.025 120.069 320.689 119.728C322.353 119.344 323.761 118.853 324.913 118.256L324.401 119.984V107.824L325.425 108.72H317.041C316.102 108.72 315.313 108.421 314.673 107.824C314.075 107.227 313.777 106.459 313.777 105.52C313.777 104.581 314.075 103.813 314.673 103.216C315.313 102.619 316.102 102.32 317.041 102.32H328.113C329.009 102.32 329.755 102.64 330.353 103.28C330.993 103.877 331.313 104.645 331.313 105.584V119.792C331.313 120.475 331.142 121.051 330.801 121.52C330.459 121.989 330.075 122.373 329.649 122.672C327.729 123.867 325.595 124.827 323.249 125.552C320.945 126.277 318.513 126.64 315.953 126.64Z" fill="url(#paint0_linear_1_73)"/>
<defs>
<linearGradient id="paint0_linear_1_73" x1="165" y1="-18" x2="165" y2="142" gradientUnits="userSpaceOnUse">
<stop stop-color="white"/>
<stop offset="1" stop-color="#9C0000"/>
</linearGradient>
</defs>
</svg>
